<svg width="40" height="7" viewBox="0 0 40 7" fill="none" xmlns="http://www.w3.org/2000/svg">
<g clip-path="url(#clip0_2_1126)">
<path d="M3.73242 5.21531L1.91122 6.26905L2.31791 4.15303L0.7854 2.68826L2.8581 2.43417L3.73242 0.475098L4.60674 2.43417L6.67944 2.68826L5.14693 4.15303L5.55362 6.26905L3.73242 5.21531Z" fill="#FFCB4B"/>
</g>
<g clip-path="url(#clip1_2_1126)">
<path d="M11.9953 5.21531L10.1741 6.26905L10.5808 4.15303L9.04828 2.68826L11.121 2.43417L11.9953 0.475098L12.8696 2.43417L14.9423 2.68826L13.4098 4.15303L13.8165 6.26905L11.9953 5.21531Z" fill="#FFCB4B"/>
</g>
<g clip-path="url(#clip2_2_1126)">
<path d="M20.2582 5.21531L18.437 6.26905L18.8437 4.15303L17.3112 2.68826L19.3839 2.43417L20.2582 0.475098L21.1326 2.43417L23.2053 2.68826L21.6727 4.15303L22.0794 6.26905L20.2582 5.21531Z" fill="#FFCB4B"/>
</g>
<g clip-path="url(#clip3_2_1126)">
<path d="M28.5212 5.21531L26.7 6.26905L27.1067 4.15303L25.5742 2.68826L27.6469 2.43417L28.5212 0.475098L29.3955 2.43417L31.4682 2.68826L29.9357 4.15303L30.3424 6.26905L28.5212 5.21531Z" fill="#FFCB4B"/>
</g>
<g clip-path="url(#clip4_2_1126)">
<path d="M36.7841 5.21531L34.9629 6.26905L35.3696 4.15303L33.8371 2.68826L35.9098 2.43417L36.7841 0.475098L37.6584 2.43417L39.7311 2.68826L38.1986 4.15303L38.6053 6.26905L36.7841 5.21531Z" fill="#FFCB4B"/>
</g>
<defs>
<clipPath id="clip0_2_1126">
<rect width="6.19718" height="6.40569" fill="white" transform="translate(0.633789 0.341553)"/>
</clipPath>
<clipPath id="clip1_2_1126">
<rect width="6.19718" height="6.40569" fill="white" transform="translate(8.89667 0.341553)"/>
</clipPath>
<clipPath id="clip2_2_1126">
<rect width="6.19718" height="6.40569" fill="white" transform="translate(17.1596 0.341553)"/>
</clipPath>
<clipPath id="clip3_2_1126">
<rect width="6.19718" height="6.40569" fill="white" transform="translate(25.4225 0.341553)"/>
</clipPath>
<clipPath id="clip4_2_1126">
<rect width="6.19718" height="6.40569" fill="white" transform="translate(33.6855 0.341553)"/>
</clipPath>
</defs>
</svg>
